<svg xmlns="http://www.w3.org/2000/svg" xmlns:xlink="http://www.w3.org/1999/xlink" version="1.1" viewBox="0 0 26.869156633596404 6.148958786528821"><g transform="matrix(1,0,0,1,7.358939459576581,2.0913606432644105)"><rect width="26.869156633596404" height="26.869156633596404" x="-7.358939459576581" y="-12.451459566798203" fill="#b9625d"/><g clip-path="url(#SvgjsClipPath1002)"><g clip-path="url(#a5244f9a5-e80d-4281-ad1b-40b5b45f77a9b6f2b982-7c0f-4b22-b818-041c1394546f)"><path d=" M -4.900157557682441 -0.8639915515686831 L -4.7883847718008505 -0.8639915515686831 C -4.733171245648128 -0.8639915515686831 -4.688415991858595 -0.9121688135947008 -4.688415991858595 -0.9715348890681017 C -4.688415991858595 -1.0309394140722494 -4.733171245648128 -1.0791166760982671 -4.7883847718008505 -1.0791166760982671 L -4.900157557682441 -1.0791166760982671 C -4.955332634304416 -1.0791166760982671 -5.000087888093949 -1.0309394140722494 -5.000087888093949 -0.9715348890681017 C -5.000087888093949 -0.9121688135947008 -4.955332634304416 -0.8639915515686831 -4.900157557682441 -0.8639915515686831" fill="#ffffff" transform="matrix(1,0,0,1,0,0)" fill-rule="nonzero"/></g><g clip-path="url(#a5244f9a5-e80d-4281-ad1b-40b5b45f77a9b6f2b982-7c0f-4b22-b818-041c1394546f)"><path d=" M -4.051614863626429 -0.8639915515686831 L -3.939765178683344 -0.8639915515686831 C -3.884590102061369 -0.8639915515686831 -3.839834848271836 -0.9121303640639538 -3.839834848271836 -0.9715348890681017 C -3.839834848271836 -1.0309394140722494 -3.884590102061369 -1.0791166760982671 -3.939765178683344 -1.0791166760982671 L -4.051614863626429 -1.0791166760982671 C -4.1067899402484045 -1.0791166760982671 -4.151545194037937 -1.0309394140722494 -4.151545194037937 -0.9715348890681017 C -4.151545194037937 -0.9121303640639538 -4.1067899402484045 -0.8639915515686831 -4.051614863626429 -0.8639915515686831" fill="#ffffff" transform="matrix(1,0,0,1,0,0)" fill-rule="nonzero"/></g><g clip-path="url(#a5244f9a5-e80d-4281-ad1b-40b5b45f77a9b6f2b982-7c0f-4b22-b818-041c1394546f)"><path d=" M -3.6611214293596808 -0.7234969662190669 C -3.645818516122366 -0.6808179870898733 -3.6079841778672974 -0.6546338566511518 -3.567881317298154 -0.6546338566511518 C -3.5558850637050834 -0.6546338566511518 -3.5437350119890247 -0.656940828495973 -3.531892556518942 -0.6618623684315919 C -3.4804086348486805 -0.6832787570576826 -3.4547627978404174 -0.74552854733711 -3.4746412052366273 -0.8009343211435678 C -3.491212952988594 -0.8472275561629813 -3.511591204284515 -0.8693360363425185 -3.5351607666324387 -0.9076317689665517 C -3.5656127949840797 -0.9571163150379681 -3.627631888079025 -0.9707274489224136 -3.673694425913957 -0.9378915496644574 C -3.719680064687394 -0.9050940999372483 -3.7322915107724173 -0.8383841640911665 -3.7018010328900295 -0.788861168489003 C -3.686228972937485 -0.763484478195969 -3.672540939991546 -0.7552947281468535 -3.6611214293596808 -0.7234969662190669" fill="#ffffff" transform="matrix(1,0,0,1,0,0)" fill-rule="nonzero"/></g><g clip-path="url(#a5244f9a5-e80d-4281-ad1b-40b5b45f77a9b6f2b982-7c0f-4b22-b818-041c1394546f)"><path d=" M -5.707097859470177 -0.6785110152450522 C -5.701061283142894 -0.6773190797918945 -5.695063156346359 -0.6767423368306891 -5.689141928611318 -0.6767423368306891 C -5.642810244061157 -0.6767423368306891 -5.601476998508109 -0.7117314098104786 -5.591441670983137 -0.7618695979045943 C -5.584751452633155 -0.7803253726631645 -5.576061858684328 -0.7947823962240445 -5.565565136790392 -0.8048561732797641 C -5.524385689360332 -0.844420740418449 -5.520809883000859 -0.9124379603099295 -5.557567634395011 -0.956731819730498 C -5.5943638353199105 -1.0010256791510665 -5.657497964806519 -1.0048706322257688 -5.698677412236579 -0.9653060650870838 C -5.7351275673847555 -0.9302785425765474 -5.7628881285841045 -0.8847927477028212 -5.780997857565952 -0.8303866616957862 C -5.783869630703682 -0.821545387280965 -5.786054923546016 -0.8124957039809491 -5.787534277792945 -0.8033181920498833 C -5.797454256725676 -0.7448749053144109 -5.761388596884971 -0.6891615352619771 -5.707097859470177 -0.6785110152450522" fill="#ffffff" transform="matrix(1,0,0,1,0,0)" fill-rule="nonzero"/></g><g clip-path="url(#a5244f9a5-e80d-4281-ad1b-40b5b45f77a9b6f2b982-7c0f-4b22-b818-041c1394546f)"><path d=" M -5.325178670560014 -0.8639915515686831 L -5.213328985616929 -0.8639915515686831 C -5.158153908994954 -0.8639915515686831 -5.113398655205421 -0.9121688135947008 -5.113398655205421 -0.9715348890681017 C -5.113398655205421 -1.0309394140722494 -5.158153908994954 -1.0791166760982671 -5.213328985616929 -1.0791166760982671 L -5.325178670560014 -1.0791166760982671 C -5.3803537471819896 -1.0791166760982671 -5.425109000971522 -1.0309394140722494 -5.425109000971522 -0.9715348890681017 C -5.425109000971522 -0.9121688135947008 -5.3803537471819896 -0.8639915515686831 -5.325178670560014 -0.8639915515686831" fill="#ffffff" transform="matrix(1,0,0,1,0,0)" fill-rule="nonzero"/></g><g clip-path="url(#a5244f9a5-e80d-4281-ad1b-40b5b45f77a9b6f2b982-7c0f-4b22-b818-041c1394546f)"><path d=" M -4.483018598608008 -0.8639915515686831 L -4.371245812726417 -0.8639915515686831 C -4.316032286573694 -0.8639915515686831 -4.271277032784162 -0.9121688135947008 -4.271277032784162 -0.9715348890681017 C -4.271277032784162 -1.0309394140722494 -4.316032286573694 -1.0791166760982671 -4.371245812726417 -1.0791166760982671 L -4.483018598608008 -1.0791166760982671 C -4.538193675229984 -1.0791166760982671 -4.582948929019516 -1.0309394140722494 -4.582948929019516 -0.9715348890681017 C -4.582948929019516 -0.9121688135947008 -4.538193675229984 -0.8639915515686831 -4.483018598608008 -0.8639915515686831" fill="#ffffff" transform="matrix(1,0,0,1,0,0)" fill-rule="nonzero"/></g><g clip-path="url(#a5244f9a5-e80d-4281-ad1b-40b5b45f77a9b6f2b982-7c0f-4b22-b818-041c1394546f)"><path d=" M -2.530282280559038 -0.18101253690934416 L -2.4134341566188406 -0.18101253690934416 C -2.358259079996865 -0.18101253690934416 -2.3135038262073317 -0.22915134940461468 -2.3135038262073317 -0.2885558744087626 C -2.3135038262073317 -0.34796039941291046 -2.358259079996865 -0.39613766143892815 -2.4134341566188406 -0.39613766143892815 L -2.530282280559038 -0.39613766143892815 C -2.5854573571810135 -0.39613766143892815 -2.6302126109705464 -0.34796039941291046 -2.6302126109705464 -0.2885558744087626 C -2.6302126109705464 -0.22915134940461468 -2.5854573571810135 -0.18101253690934416 -2.530282280559038 -0.18101253690934416" fill="#ffffff" transform="matrix(1,0,0,1,0,0)" fill-rule="nonzero"/></g><g clip-path="url(#a5244f9a5-e80d-4281-ad1b-40b5b45f77a9b6f2b982-7c0f-4b22-b818-041c1394546f)"><path d=" M -0.5279076183156644 0.8918447195247903 C -0.5279076183156644 0.8324401945206423 -0.5726628721051963 0.7843013820253717 -0.6278379487271728 0.7843013820253717 C -0.6830514748798953 0.7843013820253717 -0.7278067286694272 0.8324401945206423 -0.7278067286694272 0.8918447195247903 L -0.7278067286694272 1.017613134598297 C -0.7278067286694272 1.0769792100716977 -0.6830514748798953 1.125156472097715 -0.6278379487271728 1.125156472097715 C -0.5726628721051963 1.125156472097715 -0.5279076183156644 1.0769792100716977 -0.5279076183156644 1.017613134598297 Z" fill="#ffffff" transform="matrix(1,0,0,1,0,0)" fill-rule="nonzero"/></g><g clip-path="url(#a5244f9a5-e80d-4281-ad1b-40b5b45f77a9b6f2b982-7c0f-4b22-b818-041c1394546f)"><path d=" M -0.7285372697536223 0.4072652835200812 C -0.7276913800771876 0.42652849842433893 -0.7272684352389698 0.4466760525357778 -0.727229985708223 0.468746083184568 C -0.727229985708223 0.4833569048684361 -0.727422233361958 0.4963912957916763 -0.7275760314849471 0.5075416597083124 L -0.727806728669429 0.5270355717970523 C -0.7281143249154045 0.5864400968012002 -0.6836282178411004 0.6348865055424471 -0.6284531412191257 0.6352325513191701 L -0.6278379487271728 0.6352325513191701 C -0.5729320188204268 0.6352325513191701 -0.5282152145616408 0.5875166836621168 -0.5279076183156652 0.5283428558424512 L -0.5277153706619302 0.5106945212295684 C -0.527561572538942 0.49865981810575066 -0.5273308753544601 0.48454884032159384 -0.5273308753544601 0.4686691841230741 C -0.527331713279791 0.44475815559551135 -0.527844491190594 0.4208498854971854 -0.5288688565838795 0.3969608092906254 C -0.5315218742058851 0.3376331833372255 -0.5784303017172503 0.291762893156029 -0.6334900297469854 0.2946850574928028 C -0.6886266568382142 0.29753032276808233 -0.7311902873751661 0.34793765757742734 -0.7285372697536223 0.4072652835200812" fill="#ffffff" transform="matrix(1,0,0,1,0,0)" fill-rule="nonzero"/></g><g clip-path="url(#a5244f9a5-e80d-4281-ad1b-40b5b45f77a9b6f2b982-7c0f-4b22-b818-041c1394546f)"><path d=" M -0.7935938757775807 0.08113636372384692 C -0.7747920552422878 0.1145874554737556 -0.741802357861344 0.13312012929381978 -0.7079283212732177 0.13312012929381978 C -0.6903568857218287 0.13312012929381978 -0.6725163034552111 0.12808324076596 -0.656367500541462 0.11762496840277015 C -0.6091130272533727 0.08690379333590026 -0.5939639121390474 0.020809049981770578 -0.6224550144225898 -0.030059679196538625 C -0.6462825663695648 -0.07269374453981348 -0.674852465017084 -0.11249812703473117 -0.7076207250272422 -0.1487149310818464 C -0.7462240538972509 -0.1911632130265577 -0.809511981506847 -0.191932203641498 -0.8489227505225454 -0.15036826090396815 C -0.888371969068988 -0.1088043181664381 -0.8890640606224354 -0.04071019921346353 -0.8504607317524258 0.0017380827312480918 C -0.8285788251326904 0.02598082104746169 -0.8095025104802165 0.052615432107202986 -0.7935938757775807 0.08113636372384714" fill="#ffffff" transform="matrix(1,0,0,1,0,0)" fill-rule="nonzero"/></g><g clip-path="url(#a5244f9a5-e80d-4281-ad1b-40b5b45f77a9b6f2b982-7c0f-4b22-b818-041c1394546f)"><path d=" M -0.6278763982579187 1.2753403391955807 C -0.6830514748798944 1.2753403391955807 -0.7278067286694272 1.3235176012215983 -0.7278067286694272 1.382883676694999 L -0.7278067286694272 1.5124585953124605 C -0.7278067286694272 1.5718631203166085 -0.6830514748798944 1.6200403823426257 -0.6278763982579187 1.6200403823426257 C -0.572701321635944 1.6200403823426257 -0.5279460678464103 1.5718631203166085 -0.5279460678464103 1.5124585953124605 L -0.5279460678464103 1.382883676694999 C -0.5279460678464103 1.3235176012215983 -0.572701321635944 1.2753403391955807 -0.6278763982579187 1.2753403391955807" fill="#ffffff" transform="matrix(1,0,0,1,0,0)" fill-rule="nonzero"/></g><g clip-path="url(#a5244f9a5-e80d-4281-ad1b-40b5b45f77a9b6f2b982-7c0f-4b22-b818-041c1394546f)"><path d=" M -1.20358122213307 -0.152905929933272 C -1.1688678843661364 -0.151373743179541 -1.134291987562646 -0.1475719358044173 -1.1000750853620893 -0.14152486883215376 C -1.0944614538730226 -0.1404867315019841 -1.0888862719147054 -0.13998688760227285 -1.083387989017881 -0.13998688760227285 C -1.035479873707093 -0.13998688760227285 -0.993146940354622 -0.17720603336538943 -0.9849571903055061 -0.2297280923658206 C -0.975767752456969 -0.28832517722428086 -1.0124870543203741 -0.3437694005614855 -1.0669315898581555 -0.35365092996347014 C -1.1092401299318695 -0.36117734560183046 -1.151999160465996 -0.3659040873370538 -1.1949300777149903 -0.3678003572783739 C -1.2497975580909895 -0.3704149253691713 -1.2967059856023555 -0.3243523875342399 -1.2990898565086706 -0.26502476159158606 C -1.3014737274149857 -0.20565868611818516 -1.2587178492242987 -0.1554435989625753 -1.20358122213307 -0.152905929933272" fill="#ffffff" transform="matrix(1,0,0,1,0,0)" fill-rule="nonzero"/></g><g clip-path="url(#a5244f9a5-e80d-4281-ad1b-40b5b45f77a9b6f2b982-7c0f-4b22-b818-041c1394546f)"><path d=" M -2.9659154639227894 -0.18101253690934416 L -2.8485290465521333 -0.18101253690934416 C -2.793315520399411 -0.18101253690934416 -2.748560266609878 -0.22915134940461468 -2.748560266609878 -0.2885558744087626 C -2.748560266609878 -0.34796039941291046 -2.793315520399411 -0.39613766143892815 -2.8485290465521333 -0.39613766143892815 L -2.9659154639227894 -0.39613766143892815 C -3.021090540544765 -0.39613766143892815 -3.065845794334298 -0.34796039941291046 -3.065845794334298 -0.2885558744087626 C -3.065845794334298 -0.22915134940461468 -3.021090540544765 -0.18101253690934416 -2.9659154639227894 -0.18101253690934416" fill="#ffffff" transform="matrix(1,0,0,1,0,0)" fill-rule="nonzero"/></g><g clip-path="url(#a5244f9a5-e80d-4281-ad1b-40b5b45f77a9b6f2b982-7c0f-4b22-b818-041c1394546f)"><path d=" M -2.096840720447868 -0.18101253690934416 L -1.9799925965076701 -0.18101253690934416 C -1.9248175198856945 -0.18101253690934416 -1.8800622660961617 -0.22915134940461468 -1.8800622660961617 -0.2885558744087626 C -1.8800622660961617 -0.34796039941291046 -1.9248175198856945 -0.39613766143892815 -1.9799925965076701 -0.39613766143892815 L -2.096840720447868 -0.39613766143892815 C -2.1520157970698435 -0.39613766143892815 -2.1967710508593763 -0.34796039941291046 -2.1967710508593763 -0.2885558744087626 C -2.1967710508593763 -0.22915134940461468 -2.1520157970698435 -0.18101253690934416 -2.096840720447868 -0.18101253690934416" fill="#ffffff" transform="matrix(1,0,0,1,0,0)" fill-rule="nonzero"/></g><g clip-path="url(#a5244f9a5-e80d-4281-ad1b-40b5b45f77a9b6f2b982-7c0f-4b22-b818-041c1394546f)"><path d=" M -1.639022157843086 -0.18101253690934416 L -1.5221740339028882 -0.18101253690934416 C -1.4669605077501657 -0.18101253690934416 -1.422205253960633 -0.22915134940461468 -1.422205253960633 -0.2885558744087626 C -1.422205253960633 -0.34796039941291046 -1.4669605077501657 -0.39613766143892815 -1.5221740339028882 -0.39613766143892815 L -1.639022157843086 -0.39613766143892815 C -1.6941972344650615 -0.39613766143892815 -1.7389524882545944 -0.34796039941291046 -1.7389524882545944 -0.2885558744087626 C -1.7389524882545944 -0.22915134940461468 -1.6941972344650615 -0.18101253690934416 -1.639022157843086 -0.18101253690934416" fill="#ffffff" transform="matrix(1,0,0,1,0,0)" fill-rule="nonzero"/></g><g clip-path="url(#a5244f9a5-e80d-4281-ad1b-40b5b45f77a9b6f2b982-7c0f-4b22-b818-041c1394546f)"><path d=" M -3.665120180557371 -0.3148553534397247 C -3.665120180557371 -0.17943610614871575 -3.563113575485524 -0.06966269586597007 -3.4373067108812703 -0.06966269586597007 C -3.3114613967462696 -0.06966269586597007 -3.209454791674422 -0.17943610614871575 -3.209454791674422 -0.3148553534397247 C -3.209454791674422 -0.4502361511999866 -3.3114613967462696 -0.5600095614827323 -3.4373067108812703 -0.5600095614827323 C -3.563113575485524 -0.5600095614827323 -3.665120180557371 -0.4502361511999866 -3.665120180557371 -0.3148553534397247" fill="#ffffff" transform="matrix(1,0,0,1,0,0)" fill-rule="nonzero"/></g><g clip-path="url(#a5244f9a5-e80d-4281-ad1b-40b5b45f77a9b6f2b982-7c0f-4b22-b818-041c1394546f)"><path d=" M -0.6278763982579187 1.7596506284850604 C -0.7536832628621735 1.7596506284850604 -0.8556898679340197 1.869424038767806 -0.8556898679340197 2.004804836528068 C -0.8556898679340197 2.140224083819077 -0.7536832628621735 2.249997494101822 -0.6278763982579187 2.249997494101822 C -0.5020695336536649 2.249997494101822 -0.4000629285818187 2.140224083819077 -0.4000629285818187 2.004804836528068 C -0.4000629285818187 1.869424038767806 -0.5020695336536649 1.7596506284850604 -0.6278763982579187 1.7596506284850604" fill="#ffffff" transform="matrix(1,0,0,1,0,0)" fill-rule="nonzero"/></g><g clip-path="url(#a5244f9a5-e80d-4281-ad1b-40b5b45f77a9b6f2b982-7c0f-4b22-b818-041c1394546f)"><path d=" M -0.6278763982579187 2.4126390091617234 C -0.6830514748798944 2.4126390091617234 -0.7278067286694272 2.46081627118774 -0.7278067286694272 2.520182346661141 C -0.7278067286694272 2.7062780754767246 -0.7888261339649496 2.830200913074374 -1.0865024010083886 2.830200913074374 L -5.5267311107358985 2.830200913074374 C -5.688411387527124 2.830200913074374 -5.785304205009616 2.7206581999761106 -5.814718096031088 2.5046102867085978 C -5.97889759232087 1.2986792043590227 -6.1452302623324835 0.03968776957855824 -6.146806693093112 -0.054282883567162044 C -6.146806693093112 -0.12341513985030628 -6.092554405209064 -0.20785030937076465 -6.0292280280687205 -0.20785030937076465 L -5.940255813920113 -0.20785030937076465 C -5.903190466279985 -0.12641420324857422 -5.82567621229399 -0.07020098929642904 -5.735781209407453 -0.07020098929642904 C -5.645847756990172 -0.07020098929642904 -5.568333503004177 -0.12641420324857422 -5.531268155364048 -0.20785030937076465 L -4.2257912379104345 -0.20785030937076465 C -4.103906225442376 -0.20785030937076465 -4.0391572156643925 -0.1079584284900037 -4.019201909206689 -0.014487619243995109 C -4.012127195549237 0.01857897719844348 -4.002091868024264 0.07267746695950228 -3.992056540499292 0.1289291304423943 C -4.04796215820546 0.17360748517043278 -4.084335414292143 0.24496981423690434 -4.084335414292143 0.32563692974415503 C -4.084335414292143 0.4610561770351638 -3.982290359689549 0.5708295873179094 -3.856483495085295 0.5708295873179094 C -3.7665884921987596 0.5708295873179094 -3.689035788682017 0.5146163733657645 -3.6520088905726356 0.4331802672435736 L -1.8122757433891623 0.4331802672435736 C -1.5966892244906141 0.4331802672435736 -1.5620077477568008 0.5505282350834824 -1.523250620763804 0.7419299991421542 C -1.5212127956342112 0.752042225728621 -1.5192134200353662 0.7620006541920994 -1.5171755949057735 0.7716899359403488 C -1.4929908400658976 0.887615271142618 -1.341345890799646 1.785565612208553 -1.2686378281570292 2.2175845396820835 C -1.326389023339055 2.2620706467563876 -1.3641849120633758 2.33470181033751 -1.3641849120633758 2.416945356605389 C -1.3641849120633758 2.5523646038963976 -1.2621783069915296 2.6621380141791438 -1.1363714423872757 2.6621380141791438 C -1.010526128252275 2.6621380141791438 -0.9085195231804271 2.5523646038963976 -0.9085195231804271 2.416945356605389 C -0.9085195231804271 2.3057877632157506 -0.9773441832175953 2.212047807254512 -1.0715839830785443 2.181980274210342 C -1.1443689447826557 1.7496153009600872 -1.2968982332560897 0.8456283835668708 -1.3221595749568822 0.7245508112445007 L -1.327965454099683 0.6961366080224518 C -1.3617625916263147 0.5290733969266446 -1.4247044734591876 0.21809359224473646 -1.8122757433891623 0.21809359224473646 L -3.6520088905726356 0.21809359224473646 C -3.68034619473319 0.155843801965309 -3.7323684098339105 0.10851242961572583 -3.7955409888512666 0.08959526048819155 C -3.8060377107452035 0.030729028914502132 -3.816688230762128 -0.026676120490800814 -3.824378136911532 -0.06270333080076007 C -3.8704406747464635 -0.2781745011070671 -4.0317364562302185 -0.42293698436960225 -4.2257912379104345 -0.42293698436960225 L -5.531268155364048 -0.42293698436960225 C -5.568333503004177 -0.5043346409610463 -5.645847756990172 -0.560547854913191 -5.735781209407453 -0.560547854913191 C -5.825676212293989 -0.560547854913191 -5.903190466279985 -0.5043346409610457 -5.940255813920113 -0.42293698436960225 L -6.0292280280687205 -0.42293698436960225 C -6.2162849951529795 -0.42293698436960225 -6.3466673539161285 -0.22865150550490398 -6.3466673539161285 -0.05428288356716249 C -6.3466673539161285 0.0679866242083651 -6.112971106035732 1.797754113455358 -6.0124640326630185 2.5357928561444316 C -5.969054512449633 2.8548470622832136 -5.7874573787314505 3.0453260376039566 -5.526731110735899 3.0453260376039566 L -1.0865024010083895 3.0453260376039566 C -0.6248388853289049 3.0453260376039566 -0.5279460678464121 2.75976137274583 -0.5279460678464121 2.520182346661141 C -0.5279460678464103 2.46081627118774 -0.572701321635944 2.4126390091617234 -0.6278763982579187 2.4126390091617234" fill="#ffffff" transform="matrix(1,0,0,1,0,0)" fill-rule="nonzero"/></g></g><g><path d=" M 0.384 0.5504999999999999 L 0.384 1.0739999999999998 L 0.0915 1.0739999999999998 L 0.0915 0.008999999999999897 L 0.3195 0.008999999999999897 L 0.747 0.5504999999999999 L 0.747 0.008999999999999897 L 1.0395 0.008999999999999897 L 1.0395 1.0739999999999998 L 0.807 1.0739999999999998 L 0.384 0.5504999999999999 M 1.47304248046875 0.008999999999999897 L 1.80004248046875 0.008999999999999897 L 2.13904248046875 1.0739999999999998 L 1.8420424804687499 1.0739999999999998 L 1.77754248046875 0.8654999999999998 L 1.49404248046875 0.8654999999999998 L 1.4310424804687498 1.0739999999999998 L 1.13254248046875 1.0739999999999998 L 1.47304248046875 0.008999999999999897 M 1.73104248046875 0.6704999999999999 L 1.63654248046875 0.2954999999999999 L 1.5375424804687499 0.6704999999999999 L 1.73104248046875 0.6704999999999999 M 2.649043212890625 1.0815 Q 2.545543212890625 1.0815 2.451793212890625 1.0447499999999998 Q 2.358043212890625 1.0079999999999998 2.286043212890625 0.9367499999999999 Q 2.214043212890625 0.8654999999999998 2.172793212890625 0.7642499999999999 Q 2.131543212890625 0.6629999999999998 2.131543212890625 0.5324999999999999 Q 2.131543212890625 0.4199999999999998 2.1735432128906247 0.32399999999999984 Q 2.215543212890625 0.22799999999999987 2.289793212890625 0.15524999999999978 Q 2.364043212890625 0.0824999999999998 2.463043212890625 0.041999999999999815 Q 2.5620432128906248 0.0014999999999998348 2.677543212890625 0.0014999999999998348 Q 2.821543212890625 0.0014999999999998348 2.938543212890625 0.06374999999999975 Q 3.055543212890625 0.12599999999999978 3.1125432128906247 0.23399999999999987 L 2.895043212890625 0.40049999999999986 Q 2.863543212890625 0.3374999999999998 2.800543212890625 0.2992499999999998 Q 2.7375432128906247 0.2609999999999998 2.6670432128906247 0.2609999999999998 Q 2.614543212890625 0.2609999999999998 2.571043212890625 0.2819999999999998 Q 2.527543212890625 0.3029999999999998 2.495293212890625 0.3404999999999998 Q 2.463043212890625 0.3779999999999998 2.445793212890625 0.42974999999999985 Q 2.428543212890625 0.4814999999999998 2.428543212890625 0.5429999999999998 Q 2.428543212890625 0.6059999999999999 2.446543212890625 0.6569999999999998 Q 2.464543212890625 0.7079999999999999 2.496793212890625 0.7447499999999998 Q 2.529043212890625 0.7814999999999999 2.5740432128906248 0.8017499999999999 Q 2.6190432128906247 0.8219999999999998 2.674543212890625 0.8219999999999998 Q 2.745043212890625 0.8219999999999998 2.809543212890625 0.7867499999999998 Q 2.874043212890625 0.7514999999999998 2.926543212890625 0.6869999999999998 L 2.926543212890625 0.9719999999999999 Q 2.8065432128906247 1.0815 2.649043212890625 1.0815 M 2.911543212890625 0.7169999999999999 L 2.715043212890625 0.7169999999999999 L 2.715043212890625 0.5069999999999998 L 3.153043212890625 0.5069999999999998 L 3.153043212890625 1.0739999999999998 L 2.911543212890625 1.0739999999999998 L 2.911543212890625 0.7169999999999999 M 3.3015637207031245 1.0739999999999998 L 3.3015637207031245 0.008999999999999897 L 3.7905637207031244 0.008999999999999897 Q 3.8685637207031247 0.008999999999999897 3.9345637207031245 0.04049999999999976 Q 4.000563720703124 0.07199999999999984 4.048563720703124 0.12524999999999986 Q 4.0965637207031245 0.17849999999999977 4.122813720703125 0.24449999999999983 Q 4.149063720703125 0.3104999999999998 4.149063720703125 0.3779999999999998 Q 4.149063720703125 0.4394999999999998 4.131063720703125 0.49649999999999983 Q 4.113063720703124 0.5534999999999999 4.078563720703125 0.6007499999999999 Q 4.044063720703124 0.6479999999999999 3.9960637207031247 0.6824999999999999 L 4.221063720703125 1.0739999999999998 L 3.9000637207031246 1.0739999999999998 L 3.7125637207031246 0.7469999999999999 L 3.5940637207031245 0.7469999999999999 L 3.5940637207031245 1.0739999999999998 L 3.3015637207031245 1.0739999999999998 M 3.5940637207031245 0.4919999999999999 L 3.778563720703125 0.4919999999999999 Q 3.7965637207031246 0.4919999999999999 3.8130637207031244 0.4784999999999998 Q 3.8295637207031246 0.46499999999999986 3.8408137207031245 0.4394999999999998 Q 3.8520637207031245 0.4139999999999998 3.8520637207031245 0.3779999999999998 Q 3.8520637207031245 0.3404999999999998 3.8393137207031245 0.31574999999999986 Q 3.826563720703125 0.2909999999999998 3.8078137207031246 0.27749999999999986 Q 3.7890637207031244 0.2639999999999998 3.7710637207031246 0.2639999999999998 L 3.5940637207031245 0.2639999999999998 L 3.5940637207031245 0.4919999999999999 M 4.31854541015625 1.0739999999999998 L 4.31854541015625 0.008999999999999897 L 4.61104541015625 0.008999999999999897 L 4.61104541015625 1.0739999999999998 L 4.31854541015625 1.0739999999999998 M 4.7985703125 1.0739999999999998 L 4.7985703125 0.008999999999999897 L 5.0910703125 0.008999999999999897 L 5.0910703125 0.4139999999999998 L 5.4150703125 0.008999999999999897 L 5.7450703125 0.008999999999999897 L 5.3580703125 0.4859999999999999 L 5.7720703125 1.0739999999999998 L 5.4360703125 1.0739999999999998 L 5.1720703125 0.6824999999999999 L 5.0910703125 0.7664999999999998 L 5.0910703125 1.0739999999999998 L 4.7985703125 1.0739999999999998 M 6.362957519531251 0.008999999999999897 L 6.689957519531251 0.008999999999999897 L 7.02895751953125 1.0739999999999998 L 6.73195751953125 1.0739999999999998 L 6.667457519531251 0.8654999999999998 L 6.383957519531251 0.8654999999999998 L 6.32095751953125 1.0739999999999998 L 6.02245751953125 1.0739999999999998 L 6.362957519531251 0.008999999999999897 M 6.620957519531251 0.6704999999999999 L 6.526457519531251 0.2954999999999999 L 6.42745751953125 0.6704999999999999 L 6.620957519531251 0.6704999999999999 M 7.5464794921875 1.0829999999999997 Q 7.418979492187501 1.0829999999999997 7.327479492187501 1.041 Q 7.2359794921875 0.9989999999999999 7.1782294921875005 0.9254999999999999 Q 7.1204794921875 0.8519999999999999 7.093479492187501 0.7567499999999998 Q 7.066479492187501 0.6614999999999998 7.066479492187501 0.5564999999999999 L 7.066479492187501 0.008999999999999897 L 7.3589794921875 0.008999999999999897 L 7.3589794921875 0.5564999999999999 Q 7.3589794921875 0.6089999999999998 7.369479492187501 0.6569999999999998 Q 7.3799794921875 0.7049999999999998 7.4024794921875 0.7424999999999998 Q 7.4249794921875 0.7799999999999998 7.4602294921875005 0.8017499999999999 Q 7.495479492187501 0.8234999999999999 7.5464794921875 0.8234999999999999 Q 7.5989794921875005 0.8234999999999999 7.634979492187501 0.8017499999999999 Q 7.6709794921875005 0.7799999999999998 7.6927294921875005 0.7417499999999999 Q 7.7144794921875 0.7034999999999998 7.724979492187501 0.6554999999999999 Q 7.7354794921875 0.6074999999999998 7.7354794921875 0.5564999999999999 L 7.7354794921875 0.008999999999999897 L 8.0279794921875 0.008999999999999897 L 8.0279794921875 0.5564999999999999 Q 8.0279794921875 0.6674999999999998 7.9987294921875005 0.7634999999999998 Q 7.9694794921875 0.8594999999999998 7.910979492187501 0.9314999999999998 Q 7.8524794921875 1.0034999999999998 7.7617294921875 1.0432499999999998 Q 7.6709794921875005 1.0829999999999997 7.5464794921875 1.0829999999999997 M 8.200450927734375 1.0739999999999998 L 8.200450927734375 0.008999999999999897 L 8.689450927734375 0.008999999999999897 Q 8.767450927734375 0.008999999999999897 8.833450927734376 0.04049999999999976 Q 8.899450927734375 0.07199999999999984 8.947450927734375 0.12524999999999986 Q 8.995450927734375 0.17849999999999977 9.021700927734376 0.24449999999999983 Q 9.047950927734375 0.3104999999999998 9.047950927734375 0.3779999999999998 Q 9.047950927734375 0.4394999999999998 9.029950927734374 0.49649999999999983 Q 9.011950927734375 0.5534999999999999 8.977450927734374 0.6007499999999999 Q 8.942950927734374 0.6479999999999999 8.894950927734374 0.6824999999999999 L 9.119950927734376 1.0739999999999998 L 8.798950927734374 1.0739999999999998 L 8.611450927734374 0.7469999999999999 L 8.492950927734375 0.7469999999999999 L 8.492950927734375 1.0739999999999998 L 8.200450927734375 1.0739999999999998 M 8.492950927734375 0.4919999999999999 L 8.677450927734375 0.4919999999999999 Q 8.695450927734374 0.4919999999999999 8.711950927734375 0.4784999999999998 Q 8.728450927734375 0.46499999999999986 8.739700927734376 0.4394999999999998 Q 8.750950927734374 0.4139999999999998 8.750950927734374 0.3779999999999998 Q 8.750950927734374 0.3404999999999998 8.738200927734376 0.31574999999999986 Q 8.725450927734375 0.2909999999999998 8.706700927734374 0.27749999999999986 Q 8.687950927734375 0.2639999999999998 8.669950927734375 0.2639999999999998 L 8.492950927734375 0.2639999999999998 L 8.492950927734375 0.4919999999999999 M 10.20439599609375 0.3569999999999999 Q 10.20439599609375 0.3569999999999999 10.17889599609375 0.34199999999999986 Q 10.15339599609375 0.32699999999999985 10.11139599609375 0.3082499999999998 Q 10.06939599609375 0.28949999999999987 10.01989599609375 0.27449999999999986 Q 9.97039599609375 0.25949999999999984 9.92239599609375 0.25949999999999984 Q 9.88489599609375 0.25949999999999984 9.86089599609375 0.27149999999999985 Q 9.83689599609375 0.28349999999999986 9.83689599609375 0.31199999999999983 Q 9.83689599609375 0.33899999999999986 9.86089599609375 0.3554999999999998 Q 9.88489599609375 0.3719999999999998 9.92914599609375 0.38549999999999984 Q 9.97339599609375 0.3989999999999998 10.03489599609375 0.41849999999999987 Q 10.13389599609375 0.4484999999999998 10.20589599609375 0.4874999999999998 Q 10.27789599609375 0.5264999999999999 10.31689599609375 0.5872499999999998 Q 10.35589599609375 0.6479999999999999 10.35589599609375 0.7484999999999998 Q 10.35589599609375 0.8444999999999998 10.32139599609375 0.9097499999999998 Q 10.286895996093751 0.9749999999999999 10.22839599609375 1.0139999999999998 Q 10.16989599609375 1.053 10.09789599609375 1.07025 Q 10.02589599609375 1.0875 9.95089599609375 1.0875 Q 9.87439599609375 1.0875 9.79114599609375 1.0717499999999998 Q 9.70789599609375 1.0559999999999998 9.629895996093751 1.0282499999999999 Q 9.55189599609375 1.0005 9.48739599609375 0.9629999999999999 L 9.61339599609375 0.7064999999999999 Q 9.61339599609375 0.7064999999999999 9.64339599609375 0.7244999999999998 Q 9.67339599609375 0.7424999999999998 9.72289599609375 0.7649999999999999 Q 9.77239599609375 0.7874999999999999 9.83314599609375 0.8054999999999999 Q 9.89389599609375 0.8234999999999999 9.95539599609375 0.8234999999999999 Q 10.00339599609375 0.8234999999999999 10.02214599609375 0.8107499999999999 Q 10.04089599609375 0.7979999999999998 10.04089599609375 0.7769999999999999 Q 10.04089599609375 0.7454999999999998 10.007895996093751 0.7282499999999998 Q 9.97489599609375 0.7109999999999999 9.92164599609375 0.6952499999999998 Q 9.86839599609375 0.6794999999999998 9.80389599609375 0.6584999999999999 Q 9.71089599609375 0.6269999999999998 9.65089599609375 0.5872499999999998 Q 9.59089599609375 0.5474999999999999 9.56239599609375 0.4927499999999998 Q 9.53389599609375 0.43799999999999983 9.53389599609375 0.3599999999999999 Q 9.53389599609375 0.24149999999999983 9.58939599609375 0.1619999999999998 Q 9.64489599609375 0.0824999999999998 9.73564599609375 0.04124999999999979 Q 9.82639599609375 -2.220446049250313e-16 9.93139599609375 -2.220446049250313e-16 Q 10.00939599609375 -2.220446049250313e-16 10.08214599609375 0.018749999999999822 Q 10.15489599609375 0.03749999999999987 10.21864599609375 0.06449999999999978 Q 10.28239599609375 0.0914999999999998 10.33039599609375 0.11549999999999983 L 10.20439599609375 0.3569999999999999 M 10.70839453125 0.008999999999999897 L 11.03539453125 0.008999999999999897 L 11.374394531250001 1.0739999999999998 L 11.07739453125 1.0739999999999998 L 11.01289453125 0.8654999999999998 L 10.72939453125 0.8654999999999998 L 10.66639453125 1.0739999999999998 L 10.36789453125 1.0739999999999998 L 10.70839453125 0.008999999999999897 M 10.96639453125 0.6704999999999999 L 10.87189453125 0.2954999999999999 L 10.77289453125 0.6704999999999999 L 10.96639453125 0.6704999999999999 M 12.2728828125 1.0739999999999998 L 12.2728828125 0.5129999999999998 L 12.094382812500001 0.9074999999999999 L 11.9383828125 0.9074999999999999 L 11.7598828125 0.5129999999999998 L 11.7598828125 1.0739999999999998 L 11.4673828125 1.0739999999999998 L 11.4673828125 0.008999999999999897 L 11.7868828125 0.008999999999999897 L 12.0163828125 0.5099999999999998 L 12.2473828125 0.008999999999999897 L 12.565382812500001 0.008999999999999897 L 12.565382812500001 1.0739999999999998 L 12.2728828125 1.0739999999999998 M 12.958388671875001 0.008999999999999897 L 13.166888671875 0.7364999999999998 L 13.372388671875001 0.008999999999999897 L 13.679888671875 0.008999999999999897 L 13.312388671875 1.0739999999999998 L 13.021388671875 1.0739999999999998 L 12.649388671875 0.008999999999999897 L 12.958388671875001 0.008999999999999897 M 13.76538427734375 1.0739999999999998 L 13.76538427734375 0.008999999999999897 L 14.057884277343751 0.008999999999999897 L 14.057884277343751 1.0739999999999998 L 13.76538427734375 1.0739999999999998 M 14.2454091796875 1.0739999999999998 L 14.2454091796875 0.008999999999999897 L 14.6549091796875 0.008999999999999897 Q 14.831909179687502 0.008999999999999897 14.951159179687501 0.08024999999999982 Q 15.0704091796875 0.15149999999999986 15.1311591796875 0.2722499999999999 Q 15.191909179687501 0.3929999999999998 15.191909179687501 0.5399999999999998 Q 15.191909179687501 0.7019999999999998 15.1251591796875 0.8219999999999998 Q 15.058409179687501 0.9419999999999998 14.9376591796875 1.0079999999999998 Q 14.816909179687501 1.0739999999999998 14.6549091796875 1.0739999999999998 L 14.2454091796875 1.0739999999999998 M 14.8949091796875 0.5399999999999998 Q 14.8949091796875 0.4574999999999998 14.866409179687501 0.3952499999999999 Q 14.8379091796875 0.33299999999999985 14.783909179687502 0.2984999999999999 Q 14.729909179687501 0.2639999999999998 14.6549091796875 0.2639999999999998 L 14.537909179687501 0.2639999999999998 L 14.537909179687501 0.8189999999999998 L 14.6549091796875 0.8189999999999998 Q 14.731409179687502 0.8189999999999998 14.784659179687502 0.7829999999999999 Q 14.8379091796875 0.7469999999999999 14.866409179687501 0.6832499999999999 Q 14.8949091796875 0.6194999999999998 14.8949091796875 0.5399999999999998 M 16.265914306640624 0.008999999999999897 L 16.265914306640624 1.0739999999999998 L 15.973414306640626 1.0739999999999998 L 15.973414306640626 0.6569999999999998 L 15.616414306640626 0.6569999999999998 L 15.616414306640626 1.0739999999999998 L 15.323914306640626 1.0739999999999998 L 15.323914306640626 0.008999999999999897 L 15.616414306640626 0.008999999999999897 L 15.616414306640626 0.4019999999999998 L 15.973414306640626 0.4019999999999998 L 15.973414306640626 0.008999999999999897 L 16.265914306640624 0.008999999999999897 M 16.699414306640623 0.008999999999999897 L 17.026414306640625 0.008999999999999897 L 17.365414306640623 1.0739999999999998 L 17.068414306640623 1.0739999999999998 L 17.003914306640624 0.8654999999999998 L 16.720414306640624 0.8654999999999998 L 16.657414306640625 1.0739999999999998 L 16.358914306640624 1.0739999999999998 L 16.699414306640623 0.008999999999999897 M 16.957414306640626 0.6704999999999999 L 16.862914306640626 0.2954999999999999 L 16.763914306640626 0.6704999999999999 L 16.957414306640626 0.6704999999999999 M 17.750902587890625 0.5504999999999999 L 17.750902587890625 1.0739999999999998 L 17.458402587890625 1.0739999999999998 L 17.458402587890625 0.008999999999999897 L 17.686402587890626 0.008999999999999897 L 18.113902587890625 0.5504999999999999 L 18.113902587890625 0.008999999999999897 L 18.406402587890625 0.008999999999999897 L 18.406402587890625 1.0739999999999998 L 18.173902587890623 1.0739999999999998 L 17.750902587890625 0.5504999999999999" fill="#ffffff" fill-rule="nonzero"/></g><g><path d=" M 0.11925000000000001 1.5304874999999996 L 0.11925000000000001 1.9662374999999996 L 0.06675 1.9662374999999996 L 0.06675 1.4337374999999997 L 0.11025 1.4337374999999997 L 0.45975 1.8777374999999996 L 0.45975 1.4344874999999995 L 0.51225 1.4344874999999995 L 0.51225 1.9662374999999996 L 0.4635 1.9662374999999996 L 0.11925000000000001 1.5304874999999996 M 0.8118544921874999 1.4337374999999997 L 0.8561044921875 1.4337374999999997 L 1.0773544921875 1.9662374999999996 L 1.0218544921875 1.9662374999999996 L 0.9528544921875 1.7997374999999995 L 0.7136044921875 1.7997374999999995 L 0.6453544921875 1.9662374999999996 L 0.5891044921874999 1.9662374999999996 L 0.8118544921874999 1.4337374999999997 M 0.9408544921875 1.7584874999999995 L 0.8336044921874999 1.4952374999999996 L 0.7248544921875 1.7584874999999995 L 0.9408544921875 1.7584874999999995 M 1.3492478027343748 1.9699874999999996 Q 1.2959978027343748 1.9699874999999996 1.2502478027343749 1.9471124999999996 Q 1.204497802734375 1.9242374999999996 1.170747802734375 1.8852374999999997 Q 1.1369978027343748 1.8462374999999995 1.1186228027343748 1.7982374999999997 Q 1.100247802734375 1.7502374999999997 1.100247802734375 1.6992374999999997 Q 1.100247802734375 1.6452374999999997 1.1186228027343748 1.5968624999999996 Q 1.1369978027343748 1.5484874999999996 1.169997802734375 1.5109874999999997 Q 1.2029978027343748 1.4734874999999996 1.2479978027343748 1.4517374999999997 Q 1.292997802734375 1.4299874999999997 1.346247802734375 1.4299874999999997 Q 1.4249978027343748 1.4299874999999997 1.474497802734375 1.4622374999999996 Q 1.5239978027343748 1.4944874999999995 1.5494978027343749 1.5462374999999997 L 1.508997802734375 1.5732374999999996 Q 1.4834978027343748 1.5237374999999997 1.440747802734375 1.5004874999999998 Q 1.397997802734375 1.4772374999999998 1.345497802734375 1.4772374999999998 Q 1.3012478027343748 1.4772374999999998 1.2656228027343748 1.4959874999999996 Q 1.229997802734375 1.5147374999999996 1.204497802734375 1.5462374999999997 Q 1.1789978027343748 1.5777374999999996 1.1658728027343748 1.6174874999999997 Q 1.152747802734375 1.6572374999999997 1.152747802734375 1.6999874999999998 Q 1.152747802734375 1.7449874999999997 1.1677478027343748 1.7851124999999997 Q 1.182747802734375 1.8252374999999996 1.210497802734375 1.8563624999999997 Q 1.2382478027343748 1.8874874999999995 1.274622802734375 1.9051124999999995 Q 1.310997802734375 1.9227374999999995 1.3529978027343748 1.9227374999999995 Q 1.4017478027343748 1.9227374999999995 1.445247802734375 1.8983624999999997 Q 1.4887478027343748 1.8739874999999997 1.5284978027343747 1.8229874999999995 L 1.5284978027343747 1.8784874999999996 Q 1.452747802734375 1.9699874999999996 1.3492478027343748 1.9699874999999996 M 1.5202478027343749 1.7449874999999997 L 1.4017478027343748 1.7449874999999997 L 1.4017478027343748 1.7044874999999997 L 1.5644978027343748 1.7044874999999997 L 1.5644978027343748 1.9662374999999996 L 1.5202478027343749 1.9662374999999996 L 1.5202478027343749 1.7449874999999997 M 1.6736253662109373 1.9662374999999996 L 1.6736253662109373 1.4337374999999997 L 1.8986253662109371 1.4337374999999997 Q 1.9331253662109371 1.4337374999999997 1.9616253662109373 1.4479874999999995 Q 1.9901253662109373 1.4622374999999996 2.011500366210937 1.4866124999999997 Q 2.0328753662109373 1.5109874999999997 2.0445003662109373 1.5406124999999995 Q 2.0561253662109373 1.5702374999999997 2.0561253662109373 1.6009874999999996 Q 2.0561253662109373 1.6392374999999997 2.0415003662109372 1.6729874999999996 Q 2.026875366210937 1.7067374999999996 2.0002503662109374 1.7299874999999996 Q 1.9736253662109373 1.7532374999999996 1.9376253662109373 1.7607374999999996 L 2.0681253662109373 1.9662374999999996 L 2.0088753662109373 1.9662374999999996 L 1.8836253662109372 1.7697374999999997 L 1.7261253662109373 1.7697374999999997 L 1.7261253662109373 1.9662374999999996 L 1.6736253662109373 1.9662374999999996 M 1.7261253662109373 1.7232374999999998 L 1.9001253662109372 1.7232374999999998 Q 1.931625366210937 1.7232374999999998 1.9548753662109373 1.7059874999999995 Q 1.9781253662109373 1.6887374999999996 1.990875366210937 1.6606124999999996 Q 2.003625366210937 1.6324874999999996 2.003625366210937 1.6009874999999996 Q 2.003625366210937 1.5687374999999997 1.9890003662109372 1.5413624999999995 Q 1.9743753662109371 1.5139874999999996 1.9500003662109373 1.4971124999999996 Q 1.9256253662109373 1.4802374999999997 1.8956253662109372 1.4802374999999997 L 1.7261253662109373 1.4802374999999997 L 1.7261253662109373 1.7232374999999998 M 2.1645117187499996 1.9662374999999996 L 2.1645117187499996 1.4337374999999997 L 2.21701171875 1.4337374999999997 L 2.21701171875 1.9662374999999996 L 2.1645117187499996 1.9662374999999996 M 2.351626098632812 1.9662374999999996 L 2.351626098632812 1.4344874999999995 L 2.4041260986328123 1.4344874999999995 L 2.4041260986328123 1.7434874999999996 L 2.6973760986328124 1.4337374999999997 L 2.7551260986328123 1.4337374999999997 L 2.5376260986328125 1.6677374999999997 L 2.7663760986328123 1.9662374999999996 L 2.7071260986328123 1.9662374999999996 L 2.503876098632812 1.6992374999999997 L 2.4041260986328123 1.8027374999999997 L 2.4041260986328123 1.9662374999999996 L 2.351626098632812 1.9662374999999996 M 3.1601114501953123 1.4337374999999997 L 3.2043614501953126 1.4337374999999997 L 3.4256114501953125 1.9662374999999996 L 3.370111450195312 1.9662374999999996 L 3.3011114501953123 1.7997374999999995 L 3.0618614501953125 1.7997374999999995 L 2.993611450195312 1.9662374999999996 L 2.9373614501953123 1.9662374999999996 L 3.1601114501953123 1.4337374999999997 M 3.2891114501953123 1.7584874999999995 L 3.181861450195312 1.4952374999999996 L 3.0731114501953125 1.7584874999999995 L 3.2891114501953123 1.7584874999999995 M 3.6974835205078125 1.9699874999999996 Q 3.6344835205078123 1.9699874999999996 3.5909835205078124 1.9474874999999996 Q 3.5474835205078126 1.9249874999999996 3.5219835205078125 1.8871124999999997 Q 3.4964835205078124 1.8492374999999996 3.4848585205078124 1.8012374999999996 Q 3.4732335205078124 1.7532374999999996 3.4732335205078124 1.7022374999999996 L 3.4732335205078124 1.4337374999999997 L 3.5249835205078126 1.4337374999999997 L 3.5249835205078126 1.7022374999999996 Q 3.5249835205078126 1.7434874999999996 3.5336085205078125 1.7832374999999996 Q 3.5422335205078124 1.8229874999999995 3.5617335205078122 1.8544874999999996 Q 3.5812335205078125 1.8859874999999997 3.6142335205078124 1.9043624999999997 Q 3.6472335205078124 1.9227374999999995 3.6967335205078125 1.9227374999999995 Q 3.747733520507812 1.9227374999999995 3.7811085205078125 1.9036124999999997 Q 3.8144835205078125 1.8844874999999996 3.8336085205078123 1.8529874999999996 Q 3.8527335205078126 1.8214874999999997 3.8609835205078125 1.7821124999999995 Q 3.8692335205078123 1.7427374999999996 3.8692335205078123 1.7022374999999996 L 3.8692335205078123 1.4337374999999997 L 3.9217335205078125 1.4337374999999997 L 3.9217335205078125 1.7022374999999996 Q 3.9217335205078125 1.7554874999999996 3.9097335205078125 1.8042374999999997 Q 3.8977335205078125 1.8529874999999996 3.8711085205078124 1.8897374999999996 Q 3.8444835205078123 1.9264874999999997 3.8017335205078124 1.9482374999999996 Q 3.7589835205078126 1.9699874999999996 3.6974835205078125 1.9699874999999996 M 4.048112182617188 1.9662374999999996 L 4.048112182617188 1.4337374999999997 L 4.273112182617187 1.4337374999999997 Q 4.307612182617188 1.4337374999999997 4.336112182617187 1.4479874999999995 Q 4.364612182617187 1.4622374999999996 4.385987182617187 1.4866124999999997 Q 4.407362182617187 1.5109874999999997 4.418987182617188 1.5406124999999995 Q 4.430612182617187 1.5702374999999997 4.430612182617187 1.6009874999999996 Q 4.430612182617187 1.6392374999999997 4.4159871826171875 1.6729874999999996 Q 4.401362182617188 1.7067374999999996 4.374737182617188 1.7299874999999996 Q 4.348112182617188 1.7532374999999996 4.312112182617187 1.7607374999999996 L 4.442612182617188 1.9662374999999996 L 4.383362182617187 1.9662374999999996 L 4.258112182617188 1.7697374999999997 L 4.100612182617187 1.7697374999999997 L 4.100612182617187 1.9662374999999996 L 4.048112182617188 1.9662374999999996 M 4.100612182617187 1.7232374999999998 L 4.2746121826171875 1.7232374999999998 Q 4.306112182617188 1.7232374999999998 4.329362182617188 1.7059874999999995 Q 4.352612182617188 1.6887374999999996 4.365362182617187 1.6606124999999996 Q 4.378112182617188 1.6324874999999996 4.378112182617188 1.6009874999999996 Q 4.378112182617188 1.5687374999999997 4.363487182617187 1.5413624999999995 Q 4.348862182617188 1.5139874999999996 4.324487182617188 1.4971124999999996 Q 4.3001121826171875 1.4802374999999997 4.270112182617187 1.4802374999999997 L 4.100612182617187 1.4802374999999997 L 4.100612182617187 1.7232374999999998 M 5.042627197265625 1.5334874999999997 Q 5.031377197265624 1.5207374999999996 5.016377197265625 1.5106124999999997 Q 5.001377197265625 1.5004874999999998 4.982627197265624 1.4929874999999997 Q 4.963877197265624 1.4854874999999996 4.9425021972656245 1.4809874999999997 Q 4.9211271972656245 1.4764874999999997 4.8971271972656245 1.4764874999999997 Q 4.8273771972656245 1.4764874999999997 4.794752197265624 1.5031124999999996 Q 4.762127197265625 1.5297374999999995 4.762127197265625 1.5754874999999997 Q 4.762127197265625 1.6069874999999996 4.777502197265624 1.6249874999999996 Q 4.792877197265625 1.6429874999999996 4.8258771972656245 1.6542374999999996 Q 4.858877197265625 1.6654874999999996 4.909877197265625 1.6774874999999996 Q 4.9668771972656245 1.6894874999999996 5.008127197265624 1.7059874999999995 Q 5.049377197265625 1.7224874999999997 5.071877197265625 1.7506124999999997 Q 5.094377197265625 1.7787374999999996 5.094377197265625 1.8267374999999997 Q 5.094377197265625 1.8634874999999997 5.080127197265624 1.8904874999999997 Q 5.065877197265625 1.9174874999999996 5.040377197265625 1.9354874999999996 Q 5.0148771972656245 1.9534874999999996 4.979627197265625 1.9621124999999997 Q 4.9443771972656245 1.9707374999999996 4.902377197265625 1.9707374999999996 Q 4.861127197265625 1.9707374999999996 4.823252197265624 1.9621124999999997 Q 4.785377197265625 1.9534874999999996 4.751627197265624 1.9366124999999996 Q 4.717877197265625 1.9197374999999997 4.688627197265625 1.8934874999999995 L 4.714877197265625 1.8507374999999997 Q 4.729127197265624 1.8657374999999996 4.749002197265624 1.8788624999999997 Q 4.768877197265625 1.8919874999999997 4.793252197265625 1.9024874999999997 Q 4.817627197265624 1.9129874999999996 4.845752197265624 1.9186124999999996 Q 4.8738771972656245 1.9242374999999996 4.903877197265625 1.9242374999999996 Q 4.9676271972656245 1.9242374999999996 5.003252197265625 1.9009874999999996 Q 5.0388771972656246 1.8777374999999996 5.0388771972656246 1.8319874999999997 Q 5.0388771972656246 1.7989874999999995 5.020877197265625 1.7791124999999997 Q 5.002877197265625 1.7592374999999996 4.9668771972656245 1.7464874999999997 Q 4.930877197265625 1.7337374999999997 4.878377197265625 1.7217374999999997 Q 4.822877197265624 1.7089874999999997 4.784627197265625 1.6932374999999995 Q 4.746377197265625 1.6774874999999996 4.727252197265624 1.6516124999999997 Q 4.7081271972656245 1.6257374999999996 4.7081271972656245 1.5829874999999995 Q 4.7081271972656245 1.5334874999999997 4.7325021972656245 1.4993624999999997 Q 4.7568771972656245 1.4652374999999997 4.799627197265624 1.4476124999999995 Q 4.842377197265624 1.4299874999999997 4.8978771972656245 1.4299874999999997 Q 4.933127197265625 1.4299874999999997 4.963502197265624 1.4371124999999996 Q 4.993877197265625 1.4442374999999996 5.019752197265625 1.4577374999999995 Q 5.045627197265625 1.4712374999999995 5.068127197265625 1.4914874999999996 L 5.042627197265625 1.5334874999999997 M 5.3429978027343745 1.4337374999999997 L 5.387247802734374 1.4337374999999997 L 5.608497802734375 1.9662374999999996 L 5.5529978027343745 1.9662374999999996 L 5.4839978027343745 1.7997374999999995 L 5.244747802734374 1.7997374999999995 L 5.176497802734374 1.9662374999999996 L 5.120247802734375 1.9662374999999996 L 5.3429978027343745 1.4337374999999997 M 5.471997802734375 1.7584874999999995 L 5.3647478027343745 1.4952374999999996 L 5.255997802734375 1.7584874999999995 L 5.471997802734375 1.7584874999999995 M 6.157891845703125 1.9662374999999996 L 6.157891845703125 1.5327374999999996 L 5.9651418457031244 1.8694874999999995 L 5.932141845703125 1.8694874999999995 L 5.738641845703125 1.5327374999999996 L 5.738641845703125 1.9662374999999996 L 5.6861418457031245 1.9662374999999996 L 5.6861418457031245 1.4337374999999997 L 5.740141845703125 1.4337374999999997 L 5.947891845703125 1.7982374999999997 L 6.157141845703125 1.4337374999999997 L 6.210391845703125 1.4337374999999997 L 6.210391845703125 1.9662374999999996 L 6.157891845703125 1.9662374999999996 M 6.342777465820312 1.4337374999999997 L 6.533277465820312 1.9009874999999996 L 6.723027465820312 1.4337374999999997 L 6.7777774658203125 1.4337374999999997 L 6.557277465820312 1.9662374999999996 L 6.509277465820312 1.9662374999999996 L 6.288027465820313 1.4337374999999997 L 6.342777465820312 1.4337374999999997 M 6.85541455078125 1.9662374999999996 L 6.85541455078125 1.4337374999999997 L 6.90791455078125 1.4337374999999997 L 6.90791455078125 1.9662374999999996 L 6.85541455078125 1.9662374999999996 M 7.042528930664062 1.9662374999999996 L 7.042528930664062 1.4337374999999997 L 7.223278930664062 1.4337374999999997 Q 7.3080289306640625 1.4337374999999997 7.364653930664062 1.4693624999999997 Q 7.421278930664062 1.5049874999999997 7.4497789306640625 1.5653624999999995 Q 7.478278930664063 1.6257374999999996 7.478278930664063 1.6992374999999997 Q 7.478278930664063 1.7802374999999997 7.447153930664062 1.8402374999999997 Q 7.416028930664062 1.9002374999999996 7.358653930664063 1.9332374999999997 Q 7.301278930664062 1.9662374999999996 7.223278930664062 1.9662374999999996 L 7.042528930664062 1.9662374999999996 M 7.4257789306640625 1.6992374999999997 Q 7.4257789306640625 1.6354874999999995 7.4021539306640625 1.5859874999999997 Q 7.3785289306640625 1.5364874999999996 7.3335289306640625 1.5083624999999996 Q 7.288528930664063 1.4802374999999997 7.223278930664062 1.4802374999999997 L 7.095028930664062 1.4802374999999997 L 7.095028930664062 1.9197374999999997 L 7.223278930664062 1.9197374999999997 Q 7.289278930664063 1.9197374999999997 7.334278930664063 1.8904874999999997 Q 7.3792789306640625 1.8612374999999997 7.4025289306640625 1.8113624999999995 Q 7.4257789306640625 1.7614874999999997 7.4257789306640625 1.6992374999999997 M 7.999924072265625 1.4337374999999997 L 7.999924072265625 1.9662374999999996 L 7.9481740722656244 1.9662374999999996 L 7.9481740722656244 1.7172374999999995 L 7.632424072265625 1.7172374999999995 L 7.632424072265625 1.9662374999999996 L 7.579924072265625 1.9662374999999996 L 7.579924072265625 1.4337374999999997 L 7.632424072265625 1.4337374999999997 L 7.632424072265625 1.6707374999999995 L 7.9481740722656244 1.6707374999999995 L 7.9481740722656244 1.4337374999999997 L 7.999924072265625 1.4337374999999997 M 8.299531127929686 1.4337374999999997 L 8.343781127929686 1.4337374999999997 L 8.565031127929686 1.9662374999999996 L 8.509531127929687 1.9662374999999996 L 8.440531127929686 1.7997374999999995 L 8.201281127929686 1.7997374999999995 L 8.133031127929687 1.9662374999999996 L 8.076781127929687 1.9662374999999996 L 8.299531127929686 1.4337374999999997 M 8.428531127929686 1.7584874999999995 L 8.321281127929687 1.4952374999999996 L 8.212531127929687 1.7584874999999995 L 8.428531127929686 1.7584874999999995 M 8.695175170898436 1.5304874999999996 L 8.695175170898436 1.9662374999999996 L 8.642675170898437 1.9662374999999996 L 8.642675170898437 1.4337374999999997 L 8.686175170898437 1.4337374999999997 L 9.035675170898436 1.8777374999999996 L 9.035675170898436 1.4344874999999995 L 9.088175170898436 1.4344874999999995 L 9.088175170898436 1.9662374999999996 L 9.039425170898436 1.9662374999999996 L 8.695175170898436 1.5304874999999996" fill="#ffffff" fill-rule="nonzero"/></g></g><defs><clipPath id="SvgjsClipPath1002"><path d=" M -6.3466673539161285 -1.079088537603958 h 5.946667353916128 v 4.124414575207916 h -5.946667353916128 Z"/></clipPath><clipPath id="a5244f9a5-e80d-4281-ad1b-40b5b45f77a9b6f2b982-7c0f-4b22-b818-041c1394546f"><path d=" M -6.3466673539161285 3.0453260376039575 L -0.40002447905107186 3.0453260376039575 L -0.40002447905107186 -1.0790782265675196 L -6.3466673539161285 -1.0790782265675196 Z"/></clipPath></defs></svg>